<svg width="512" height="512" viewBox="0 0 512 512" fill="none" xmlns="http://www.w3.org/2000/svg">
  <!-- 背景 -->
  <rect width="512" height="512" rx="128" fill="#FDF2F8" />
  
  <!-- 完整圆形 -->
  <circle cx="256" cy="256" r="128" fill="#EC4899" fill-opacity="0.1" />
  
  <!-- 上半部分 -->
  <path d="M256 128C185.307 128 128 185.307 128 256H192C192 220.654 220.654 192 256 192C291.346 192 320 220.654 320 256H384C384 185.307 326.693 128 256 128Z" fill="#EC4899" fill-opacity="0.3" />
  
  <!-- 下半部分 -->
  <path d="M256 384C326.693 384 384 326.693 384 256H320C320 291.346 291.346 320 256 320C220.654 320 192 291.346 192 256H128C128 326.693 185.307 384 256 384Z" fill="#EC4899" />
  
  <!-- 中心圆 -->
  <circle cx="256" cy="256" r="32" fill="#EC4899" />
</svg> 